<svg width="36" height="36" viewBox="0 0 36 36" fill="none" xmlns="http://www.w3.org/2000/svg">
<g clip-path="url(#clip0_1322_35772)">
<mask id="mask0_1322_35772" style="mask-type:alpha" maskUnits="userSpaceOnUse" x="0" y="0" width="36" height="36">
<path d="M23.4489 0H12.5511C8.937 0 7.1301 0 5.1849 0.614997C3.0609 1.3881 1.3881 3.0609 0.615 5.1849C0 7.1301 0 8.9373 0 12.5511V23.4489C0 27.063 0 28.8696 0.615 30.8151C1.3881 32.9391 3.0609 34.6119 5.1849 35.3847C7.1301 36 8.937 36 12.5511 36H23.4489C27.063 36 28.8696 36 30.8151 35.3847C32.9391 34.6119 34.6119 32.9391 35.385 30.8151C36 28.8696 36 27.063 36 23.4489V12.5511C36 8.9373 36 7.1301 35.385 5.1849C34.6119 3.0609 32.9391 1.3881 30.8151 0.614997C28.8696 0 27.063 0 23.4489 0Z" fill="#213FF9"/>
</mask>
<g mask="url(#mask0_1322_35772)">
<path d="M36 0H0V36H36V0Z" fill="#6D74F6"/>
<path d="M5.17314 17.1519L5.25255 20.0186C5.25702 20.181 5.38983 20.3103 5.55225 20.3104H9.06612C9.14865 20.268 9.19362 20.2152 9.22521 20.1583C9.25902 20.0974 9.27375 20.0462 9.29991 19.9738V13.8H11.3999V20.3104H12.2815C13.1907 20.3104 13.1999 20.3277 13.1999 22.0052V23.7H12.1282C11.1782 23.7 11.0566 23.6091 11.0566 22.8985C11.0566 22.1192 11.0079 22.0993 9.2961 22.1754C5.84754 22.3289 4.07217 22.1733 3.57678 21.675C3.1932 21.2886 3.0957 20.4438 3.0957 17.4953V13.8H5.08614L5.17314 17.1519ZM23.8145 22.1593H22.7428C21.8754 22.1593 21.6711 22.0418 21.6711 21.5429C21.6711 21.2366 21.6027 21.0789 21.3023 21H17.2499C17.127 21 17.0434 21.0303 16.9807 21.0715C16.9173 21.1133 16.8659 21.1722 16.816 21.2461C16.5621 21.922 16.3575 22.0998 15.4581 22.0998C14.3779 22.0998 14.3613 22.1736 14.6053 21.3294C15.5294 18.1323 17.2622 15.8033 19.5846 14.6388C20.5579 14.1504 21.6917 13.8393 22.4964 13.8393H23.8145V22.1593ZM32.9999 14.7636C32.9999 15.6539 32.9489 15.6882 31.622 15.6882H30.2441V22.1593H28.407V15.6882H26.8763C25.3793 15.6882 25.3452 15.6674 25.3452 14.7636V13.8393H32.9999V14.7636ZM21.6711 17.5369C21.6711 15.8086 21.4631 15.6943 19.9877 16.6122C19.3005 17.0397 18.5212 17.9283 17.8901 18.9405L21.6711 19.0281V17.5369Z" fill="white"/>
</g>
</g>
<defs>
<clipPath id="clip0_1322_35772">
<rect width="36" height="36" fill="white"/>
</clipPath>
</defs>
</svg>
