<svg width="24" height="24" viewBox="0 0 24 24" fill="none" xmlns="http://www.w3.org/2000/svg">
<path d="M17.9694 4.81056L18 17.2435C18.0037 18.7666 17.3768 20.2288 16.2571 21.3083C15.1374 22.3879 13.6167 22.9964 12.0294 23C10.4422 23.0036 8.91848 22.402 7.79349 21.3275C6.66849 20.253 6.03437 18.7937 6.03062 17.2706L6.00001 4.83769C5.99751 3.82227 6.41547 2.84749 7.16193 2.12779C7.90839 1.40808 8.92222 1.00241 9.98038 1.00001C11.0385 0.997612 12.0543 1.39868 12.8043 2.115C13.5543 2.83131 13.9771 3.80418 13.9796 4.8196L14.0032 17.2593C14.0044 17.767 13.7954 18.2544 13.4222 18.6142C13.049 18.9741 12.5421 19.1769 12.013 19.1781C11.4839 19.1793 10.976 18.9788 10.601 18.6206C10.226 18.2625 10.0146 17.776 10.0134 17.2683L9.99216 5.78918" stroke="black" stroke-width="1.5" stroke-linecap="round" stroke-linejoin="round"/>
</svg>
